<svg version="1.1" id="Layer_1" xmlns="http://www.w3.org/2000/svg" x="0" y="0" viewBox="0 0 824 533.2" xml:space="preserve"><style>.st0{fill:#0057b7}</style><path class="st0" d="M734.6 308.3c1-2.1 1.5-4.5 1.5-6.8 0-9.3-7.5-16.8-16.8-16.8s-16.8 7.5-16.8 16.8c0 3 .8 5.9 2.3 8.4l13 25.7c.4.8 1.4 1.1 2.2.7.3-.2.6-.4.7-.7l13.1-25.9c.3-.4.6-.9.8-1.4zM704 375.7c-3.8 8.5 0 18.4 8.5 22.1 8.5 3.8 18.4 0 22.1-8.5 2.2-4.9 1.9-10.6-.8-15.2l-13-25.7c-.4-.8-1.4-1.1-2.2-.7-.3.2-.6.4-.7.7l-13.1 25.9c-.3.5-.5.9-.8 1.4zm-21.5-30.1c-9.2 1-15.9 9.2-15 18.4 1 9.2 9.2 15.9 18.4 15 2.3-.2 4.6-1 6.7-2.2 2.6-1.5 4.7-3.6 6.1-6.1l15.7-24.1c.5-.8.3-1.8-.5-2.3-.3-.2-.6-.3-1-.3l-29 1.6c-.4-.1-.9-.1-1.4 0zm73.7-7.2c9.2-.9 15.9-9.2 15-18.4s-9.2-15.9-18.4-15c-5.4.6-10.1 3.6-12.8 8.3l-15.7 24.1c-.5.8-.3 1.8.5 2.3.3.2.6.3 1 .3l29-1.5c.4 0 .9 0 1.4-.1zm-15.3 33.7c5.5 7.5 15.9 9.1 23.4 3.7 7.5-5.5 9.1-15.9 3.7-23.4-1.4-1.9-3.1-3.5-5.1-4.6-2.5-1.5-5.4-2.3-8.4-2.2l-28.8-1.5c-.9 0-1.7.7-1.7 1.6 0 .3.1.7.3 1l15.8 24.3c.2.3.4.7.8 1.1zm-43.1-60.2c-5.4-7.5-15.9-9.2-23.4-3.7-7.5 5.4-9.2 15.9-3.7 23.4 3.2 4.4 8.2 6.9 13.6 6.9L713 340c.9 0 1.7-.7 1.7-1.6 0-.3-.1-.7-.3-1l-15.8-24.3c-.2-.3-.5-.7-.8-1.2z"/><path d="M715.1 438c-1.3-27.4-24.6-48.5-52-47.2-27.4 1.3-48.5 24.6-47.2 52 .8 15.9 9.1 30.5 22.5 39.2l68.9 50c2.2 1.6 5.2 1.1 6.8-1 .6-.8.9-1.8.9-2.9 0 0 .2-88.4.1-89.8v-.3zm9.6 0c1.3-27.4 24.6-48.5 52-47.2 27.4 1.3 48.5 24.6 47.2 52-.8 15.9-9.1 30.5-22.5 39.2l-68.9 50c-2.2 1.6-5.2 1.1-6.8-1-.6-.8-.9-1.8-.9-2.9 0 0-.2-88.4-.1-89.8v-.3zm82 81.7v2.2h-4.3v11.3h-2.7v-11.3h-4.3v-2.2h11.3zm14.6 13.5l-.5-8c0-1 0-2.3-.1-3.8h-.2c-.3 1.2-.7 2.8-1.1 4l-2.4 7.5h-2.8l-2.4-7.7c-.2-1-.7-2.6-1-3.8h-.1c0 1.2 0 2.5-.1 3.8l-.5 8h-2.6l1-13.5h4l2.3 6.6c.3 1 .5 2 .9 3.4.3-1.2.7-2.4 1-3.4l2.3-6.7h3.9l1 13.5-2.6.1zm-597.7-.2h149.3c3.9 0 7-3.1 7-7v-40.3c0-3.9-3.1-7-7-7h-96.5v-48.6h84.4c3.9 0 7-3.1 7-7v-40.3c0-3.9-3.1-7-7-7h-84.4v-43.3h96.5c3.9 0 7-3.1 7-7v-39.8c0-3.9-3.1-7-7-7H223.6c-3.9 0-7 3.1-7 7V526c0 3.9 3.1 7 7 7zm-25.5-254.4h-49.3c-3.1 0-5.8 2-6.7 5L104 414.5l-41.1-131c-.9-2.9-3.6-4.9-6.6-4.9H6.9c-3.8 0-6.9 3.1-6.9 7 0 .7.1 1.4.3 2l75.9 240.6c.9 2.9 3.6 4.9 6.6 4.9h37.9c3 0 5.7-2 6.6-4.8l77.3-240.6c1.1-3.7-.9-7.5-4.6-8.7-.5-.2-1.2-.3-1.9-.4zm397.8 243.7L533.1 425c14.8-3.8 26.7-11.3 35.5-22.1 10.6-13.1 16-29.5 16-48.8 0-14.9-2.8-27.5-8.4-37.5-5.3-9.7-13.1-17.9-22.5-23.8-9.6-5.9-20.1-10-31.1-12.1-11.5-2.3-23.2-3.4-34.9-3.4h-83.6c-3.9 0-7.1 3.2-7.1 7.1V526c0 3.9 3.1 7.1 7.1 7.1h46.6c3.9 0 6.2-3.2 6.2-7.1v-97h13.8l57.9 100.3c1.2 2.3 3.6 3.8 6.2 3.8h55c2.6 0 4.9-1.4 6.2-3.6 1.3-2.3 1.3-5-.1-7.2zm-77-170c0 2.9-.3 5.8-.9 8.6-1.5 5.5-4.8 10.1-10.1 12.4-3.1 1.2-6.4 1.8-9.7 1.7h-41.5v-48h41.4c1.1 0 2.2 0 3.3.1 4.4.4 8.5 2.2 11.7 5.2 4.1 4.1 5.4 9.7 5.7 15.3.1 1.7.1 3.2.1 4.7z" fill="#00b74f"/><path class="st0" d="M370.8 231.2l-23.6-39c-.1-.1-.2-.3-.3-.4l-.1-.1c-2.2-3-6.4-3.8-9.5-1.7-32.1 21.7-75.8 13.3-97.5-18.8-21.7-32.1-13.3-75.8 18.8-97.5 24.4-16.5 56.6-16 80.5 1.3 3.1 2.2 7.4 1.6 9.6-1.5.1-.1.2-.2.2-.3L374 34.6c2-3.1 1.1-7.3-1.9-9.4C313.2-15.6 232.3-1 191.5 57.9s-26.2 139.7 32.6 180.5c43.3 30 100.4 30.9 144.5 2.2 3.2-2 4.2-6.2 2.2-9.4zM482.7 0c-69.5 0-123.8 57.8-123.8 131.7 0 75.4 53.3 132.3 123.8 132.3s123.8-56.9 123.8-132.3C606.6 57.9 552.2 0 482.7 0zm0 204c-36.6 0-66.3-32.2-66.3-72s29.7-72 66.3-72h.5c36.4.3 65.8 32.4 65.8 72 .1 39.8-29.6 72-66.3 72zM157.8 2.8H8.5c-3.9 0-7 3.1-7 7v240.3c0 3.9 3.1 7 7 7h149.3c3.9 0 7-3.1 7-7v-40.2c0-3.9-3.1-7-7-7H61.3v-48.6h84.4c3.9 0 7-3.1 7-7V107c0-3.9-3.1-7-7-7H61.3V56.7h96.5c3.9 0 7-3.1 7-7V9.9c0-3.9-3.1-7-7-7.1.1 0 0 0 0 0z"/></svg>