<?xml version="1.0" encoding="UTF-8"?>
<svg xmlns="http://www.w3.org/2000/svg" width="157.562" height="180.232" viewBox="0 0 157.562 180.232">
  <g id="a" data-name="Layer 1"/>
  <g id="b" data-name="svg">
    <path id="c" data-name="body1" d="M157.288,178.663c-.743-1.564-1.544-3.105-2.286-4.674-.381-.807-.878-1.485-1.635-1.97-1.694-1.086-2.525-2.636-2.621-4.652-.059-1.237-.329-2.461-.969-3.557-.912-1.552-1.768-1.964-3.53-1.684-.614,.094-1.219,.231-1.829,.334-1.485,.248-2.832-.012-3.968-1.074-.86-.804-1.77-1.559-2.584-2.405-3.804-3.958-8.094-7.285-12.87-9.989-.678-.384-1.193-.88-1.394-1.654-.094-.367-.131-.767,.131-1.062,.298-.334,.676-.16,1.028-.03,.755,.273,1.5,.635,2.281,.777,3.231,.583,6.515,.819,9.724,1.563,.657,.153,1.429,.209,1.65-.715,.197-.812-.074-1.482-.844-1.869-.384-.194-.801-.351-1.219-.438-1.077-.231-2.001-.76-2.667-1.593-1.052-1.313-2.419-2.099-3.949-2.667-1.145-.423-2.028-1.16-2.741-2.142-.472-.651-.966-1.289-1.488-1.903-.868-1.021-1.896-1.697-3.317-1.82-1.586-.135-1.957-.576-1.826-2.163,.138-1.649-.086-3.191-.647-4.738-.512-1.409-.217-1.701,1.219-1.394,.779,.165,1.522,.543,2.356,.243,1.035-.371,1.256-.951,.516-1.78-1.032-1.155-2.083-2.304-3.25-3.317-1.541-1.342-2.323-2.985-2.603-4.971-.366-2.577-.801-5.143-1.246-7.705-.942-5.453-3.826-9.257-9.188-11.133-2.326-.812-4.603-1.837-6.643-3.295-1.765-1.257-3.115-2.823-3.901-4.851-.538-1.387-1.084-2.771-1.598-4.163-.138-.374-.475-.767-.064-1.219,.378-.078,.703,.128,1.043,.251,2.626,.954,5.124,2.196,7.69,3.287,1.736,.737,3.311,1.721,4.624,3.056,4.885,4.968,10.528,9.032,15.892,13.429,1.129,.924,2.405,1.556,3.852,1.728,1.768,.212,3.378,.737,4.747,1.918,.433,.374,.942,.598,1.537,.538,.378-.037,.755-.128,.957-.482,.233-.405-.067-.7-.303-.976-.442-.519-.902-1.021-1.354-1.534-.212-.239-.396-.506-.187-.823,.231-.347,.605-.423,.988-.366,.711,.108,.979,.715,1.283,1.246,.834,1.455,2.146,1.997,3.737,1.989,1.295-.007,1.654-.538,.887-1.596-2.001-2.768-4.646-4.588-8.147-4.9-1.418-.126-2.842-.202-4.265-.292-1.32-.086-2.372-.662-3.172-1.702-2.569-3.336-5.128-6.677-7.686-10.023-.022-.027,.025-.113,.059-.236,2.505,.113,5.008,.43,7.536,.367,5.891-.142,11.582-1.163,16.93-3.735,2.817-1.357,5.374-3.096,7.427-5.483,.841-.976,.71-1.362-.381-2.043-.706-.442-1.649-.487-2.271-1.291,.691-.629,1.343-1.185,1.952-1.787,2.146-2.121,2.043-2.673-.755-3.769-3.071-1.204-6.284-1.896-9.534-2.4-3.415-.538-6.864-.878-10.333-1.114-6.935-.472-13.861-.531-20.794-.111-.711,.042-1.424,.061-2.203,.094,.214-.362,.479-.366,.71-.433,6.129-1.851,12.044-4.222,17.697-7.23,12.983-6.903,22.624-16.959,28.47-30.506,2.483-5.756,3.762-11.788,3.444-18.098-.074-1.424-.224-2.842-.55-4.234-.381-1.63-.673-1.814-2.338-1.418-.89,.212-1.761,.506-2.636,.76-.34-.448-.351-.883-.423-1.31-.187-1.099-.352-2.206-.625-3.284-.693-2.722-1.003-2.881-3.541-1.851-.86,.351-1.697,.764-2.51,1.205-4.275,2.319-8.061,5.321-11.71,8.504-7.169,6.245-13.583,13.224-19.673,20.502-7.053,8.425-13.466,17.31-18.953,26.847-1.856,3.225-3.624,6.493-5.195,9.863-.273,.583-.487,1.099-1.323,1.01-3.108-.325-7.337-4.32-5.837-8.366,.366-.988,.764-1.964,1.2-2.918,1.145-2.513,1.62-5.173,.76-7.782-.77-2.338-.457-4.099,1.055-6.067,1.782-2.314,1.478-4.794-.26-7.034-2.801-3.609-6.152-3.956-9.547-.887-.844,.764-1.691,1.129-2.808,1.151-3.13,.059-6.141,.801-9.062,1.873-2.225,.816-4.41,1.814-5.95,3.673-1.429,1.731-3.044,3.238-4.693,4.742-2.232,2.035-2.581,5.704-.878,8.157,.356,.509,.752,.984,1.409,1.136,.688,.157,.657-.797,1.261-.875,.691,1.325,1.362,2.581,2.004,3.852,.639,1.264,.684,2.495-.298,3.639-.16,.187-.288,.401-.408,.62-.654,1.212-.405,1.992,.834,2.517,.452,.19,1.074,.169,1.264,.678,.691,1.863,2.363,3.179,2.753,5.229,.276,1.44,.909,1.795,2.397,1.736,1.335-.052,2.544-.538,3.68-1.193,1.445-.838,2.847-1.758,4.293-2.599,1.347-.779,1.593-.737,2.436,.487,.558,.816,1,1.709,1.5,2.562,.509,.868,.352,1.596-.307,2.356-1.256,1.455-2.449,2.958-3.632,4.474-3.011,3.86-6.279,7.514-9.089,11.531-1.74,2.486-1.298,2.891-4.428,.964-4.753-2.925-9.31-6.159-13.714-9.571-2.692-2.087-5.352-3.314-8.844-2.866-2.004,.258-3.912,.506-5.637,1.601-1.724,1.099-3.474,2.154-5.192,3.265-.834,.538-1.807,1.07-2.215,1.945-.939,2.009-2.599,3.172-4.312,4.391-.949,.676-1.77,1.534-2.731,2.225-3.968,2.866-7.917,5.756-11.87,8.644-.251,.184-.497,.371-.725,.583-.224,.209-.491,.457-.199,.779,.243,.265,.592,.209,.85,.034,.3-.202,.546-.487,.812-.74,.359-.337,.662-.777,1.084-1.003,2.734-1.485,5.168-3.412,7.73-5.15,4.143-2.812,8.46-5.374,12.195-8.752,.657-.595,1.323-.592,2.028-.131,.31,.202,.632,.401,.902,.654,1.44,1.35,3.029,1.219,4.659,.46,1.07-.501,2.035-1.178,2.906-1.986,.635-.59,1.276-1.178,1.949-1.724,1.31-1.074,1.357-1.069,2.663,.012,.573,.475,1.138,.957,1.682,1.463,3.889,3.646,7.767,7.3,11.651,10.95,1.222,1.145,2.421,2.311,3.786,3.29,1.765,1.264,3.565,1.279,5.37,.094,.62-.408,1.212-.86,1.799-1.316,2.259-1.753,4.234-3.811,6.299-5.778,.512-.487,.92-1.451,1.701-1.212,.752,.233,.721,1.227,.804,1.945,.281,2.468,1.761,4.024,3.823,5.143,.598,.322,1.224,.607,1.866,.831,3.594,1.268,6.84,3.204,10.046,5.207,2.218,1.387,4.214,3.044,5.659,5.291,.673,1.043,.927,1.986-.025,3.011-.415,.448-.71,1.013-1.043,1.534-3.213,5.03-5.377,10.454-6.149,16.399-.105,.797-.265,1.672,.556,2.195,.673,.426,1.305,.03,1.89-.351,.105-.067,.206-.142,.317-.194,.651-.303,.988,0,.949,.629-.046,.737-.221,1.466-.347,2.196-.55,3.172-1.463,6.284-1.716,9.503-.19,2.4-.512,4.817-.101,7.226,.399,2.348,1.728,3.412,4.115,3.407,1.126-.003,2.225-.179,3.305-.46,4.882-1.274,9.562-3.044,13.913-5.628,1.279-.76,2.55-1.537,3.855-2.249,1.119-.614,1.428-.528,2.095,.58,.482,.796,.883,1.635,1.276,2.476,1.531,3.272,3.943,5.662,7.155,7.282,3.486,1.758,6.96,3.535,10.434,5.318,5.3,2.722,10.574,5.465,14.628,10.028,.939,1.055,2.112,1.933,3.434,2.51,1.847,.807,3.531,1.792,4.686,3.516,.415,.62,1.016,.711,1.62,.31,.573-.379,.253-.9,.051-1.327Zm-58.08-102.693c2.936-.442,5.581-.718,8.457-.73-3.321,2.739-5.352,3.58-8.457,.73Zm12.683-1.01c3.89-.147,7.779,.025,11.664,.086,.347,.007,.737-.071,1.037,.239-.206,.494-.706,.457-1.086,.571-2.962,.878-5.928,1.731-8.898,2.584-.356,.101-.727,.246-1.084,.221-2.633-.179-5.251-.512-8.083-.521,1.738-1.879,4.386-3.105,6.449-3.181Zm-1.925-2.031c1.31,.128,2.621,.243,3.927,.393,1.283,.147,2.566,.332,3.845,.497-2.572-.165-5.311,.936-7.801-.453,.008-.145,.02-.293,.029-.437Zm12.054,7.589c1.923-.022,3.799,.273,5.689,.362,3.213,.15,6.417,.475,9.616,.789,.678,.064,1.734-.079,1.829,.823,.074,.7-.917,.883-1.497,1.193-1.952,1.05-4.069,1.443-6.265,1.463-.684,.007-1.365-.064-1.957-.46-2.358-1.578-4.806-2.992-7.415-4.17Zm4.184,3.341c-3.803,.88-7.533,1.445-10.973-1.126-1.888-1.409-4.029-2.397-6.35-3.482,6.331-.059,12.152,.983,17.323,4.608Zm4.394-3.602c-.061-.657,.472-.715,.796-.898,1.504-.85,3.026-1.664,4.544-2.488,.437-.236,.88-.47,1.394-.437,2.712,.187,5.311,.887,7.887,1.836-4.71,2.156-9.564,2.783-14.621,1.987Zm-2.105-.233c-.453,.236-.969,.157-1.461,.101-3.068-.362-6.141-.725-9.209-1.092-.228-.027-.501-.027-.587-.352,.281-.475,.823-.47,1.268-.602,2.488-.737,5-1.402,7.476-2.179,1.574-.494,3.13-.625,4.753-.366,1.433,.233,2.881,.386,4.32,.573,.025,.135,.052,.27,.078,.405-2.213,1.175-4.42,2.355-6.638,3.513Zm-29.579-7.872c3.373,.27,6.742-.108,9.724,1.817-3.344,.356-6.825,1.605-9.724-1.817Zm9.578,9.992c-1.586-1.043-3.209-2.035-4.919-3.115,2.191-.362,7.233,1.492,9.387,3.415-1.588,.455-3.039,.642-4.469-.3Zm11.801,6.453c-1.989-.135-4.032,.019-5.628-1.802-.998-1.136-2.262-2.035-3.498-3.127,.897-.228,1.66-.401,2.412-.62,.47-.135,.853,.012,1.209,.27,1.893,1.375,3.811,2.712,5.389,4.465,.165,.185,.317,.384,.116,.814Zm9.436,.01c-2.095,.157-4.201,.221-6.299,.322-.639,.03-1.224-.064-1.694-.571-.841-.898-1.701-1.783-2.532-2.651,.145-.491,.491-.366,.77-.352,2.237,.083,4.455-.019,6.624-.639,.42-.12,.871-.295,1.268-.074,1.601,.893,3.13,1.89,4.563,3.317-.996,.541-1.871,.587-2.7,.649Zm13.094-3.99c-.812,.442-1.633,.878-2.476,1.249-1.529,.669-3.139,1.119-4.716,1.65-1.667,.561-2.864,.074-4.005-1.586,3.157-.199,5.82-1.037,8.212-2.726,.782-.553,2.645-.093,3.201,.654,.251,.34,.064,.609-.216,.759Zm5-5.622c1.01,.389,1.118,.782,.401,1.605-.856,.984-1.906,1.753-2.958,2.513-.561,.405-1.118,.399-1.734,.094-1.369-.676-2.756-1.31-4.383-2.077,2.592-.71,4.968-1.305,7.23-2.259,.48-.206,.978-.059,1.445,.123Zm.16-6.301c1.234,.442,1.414,.902,.485,1.787-2.722,2.592-3,3.063-6.763,1.482-.73-.307-1.451-.632-2.458-1.074,2.692-.538,5.018-1.291,7.3-2.176,.474-.184,.941-.196,1.434-.019Zm-9.967-2.51c2.584,.426,5.153,.93,7.948,1.822-5.134,2.461-10.2,2.625-15.479,1.82,2.21-1.182,4.41-2.372,6.631-3.53,.253-.135,.612-.162,.9-.113Zm-7.423-.88c1.645,.116,3.272,.288,5.284,.576-1.497,1.119-2.918,1.586-4.091,2.427-2.046,1.473-4.214,1.731-6.653,1.323-2.304-.386-4.661-.445-6.994-.676-.399-.04-.86,.052-1.2-.31,.233-.47,.721-.426,1.102-.539,2.427-.718,4.882-1.338,7.282-2.127,1.734-.573,3.452-.804,5.269-.674Zm-19.127-.489c3.579-.199,7.155-.089,10.734-.008,1.043,.025,2.083,.089,3.302,.142-.445,.479-.951,.47-1.372,.595-2.367,.71-4.775,1.289-7.101,2.109-3.665,1.291-7.278,.442-10.913,.179-.027-.16-.056-.317-.086-.475,1.212-.721,2.427-1.445,3.639-2.166,.56-.33,1.177-.34,1.797-.374Zm-3.833,.246c-1.227,1.463-3.096,2.63-4.477,2.555-3.172-.169-6.336-.482-9.503-.737,4.568-1.021,9.15-1.733,13.98-1.819Zm26.473-16.586c-4.526,3.702-9.525,6.638-14.781,9.163-1.025,.494-2.05,.726-3.216,.632-1.347-.113-2.716-.008-4.076,.008-.676,.008-1.357,.089-2.023-.187-.098-.614,.46-.651,.77-.863,2.603-1.799,5.131-3.676,7.061-6.232,.745-.984,1.537-1.96,1.896-3.164,.231-.774,.721-1.102,1.463-1.19,4.728-.573,9.466-.893,14.22-.332,.116,.015,.224,.094,.546,.233-.516,.877-1.207,1.396-1.861,1.932Zm-9.991-12.066c-.15,.067-.337,.052-.721,.105,.558-.871,1.237-1.381,1.881-1.906,5.876-4.76,11.582-9.709,17.117-14.859,1.096-1.018,2.338-1.841,3.71-2.442,1.052-.464,1.396-.285,1.313,.875-.228,3.127-1.07,6.095-2.651,8.819-.909,1.564-2.094,2.913-3.381,4.177-.602,.592-1.264,.966-2.102,1.069-5.254,.652-10.323,1.994-15.165,4.163Zm11.004-1.601c-.187,.58-.467,1.148-.785,1.672-1.878,3.112-4.297,5.729-7.27,7.82-.92,.647-1.9,1.16-3.051,1.252-4.914,.396-9.6,1.716-14.193,3.43-.337,.126-.673,.325-1.421,.059,1.531-1.357,2.898-2.581,4.278-3.789,1.069-.939,2.154-1.854,3.22-2.793,5.111-4.497,11.208-6.909,17.729-8.431,.239-.056,.485-.108,.73-.126,.656-.049,.961,.298,.764,.907Zm-.632-17.918c-.617,3.157-1.308,6.299-1.896,9.461-.18,.973-.571,1.74-1.32,2.363-4.9,4.069-9.798,8.142-14.695,12.216-.094-.061-.194-.123-.288-.184,.71-1.568,1.406-3.139,2.127-4.701,2.026-4.383,4.069-8.755,6.077-13.146,.448-.983,1.035-1.802,1.869-2.491,2.338-1.933,4.637-3.912,6.96-5.861,.418-.351,.812-.745,1.549-.979,.099,1.205-.177,2.269-.383,3.322Zm-13.819,12.548c-1.783,3.875-3.59,7.739-5.355,11.624-.47,1.035-1.086,1.906-1.955,2.651-2.625,2.255-5.202,4.57-7.82,6.833-.393,.34-.718,.878-1.369,.785-.362-.401-.157-.841-.105-1.246,.314-2.33,.659-4.652,.966-6.983,.108-.823,.378-1.531,.932-2.169,5.348-6.178,11.041-12.017,17.089-17.51,.037-.034,.113-.019,.378-.056-.944,2.09-1.846,4.084-2.761,6.07Zm-12.347,20.9c2.894-1.096,5.793-2.166,8.811-2.884,.509-.123,1.156-.521,1.559,.007,.452,.595-.083,1.178-.401,1.679-1.204,1.896-2.756,3.493-4.443,4.956-1.596,1.381-3.366,2.513-5.198,3.56-.592,.34-1.212,.647-1.903,.691-3.287,.214-6.488,.893-9.669,1.701-.162,.042-.352-.008-.88-.03,1.212-1.635,2.726-2.528,3.931-3.74,.915-.917,1.955-1.709,2.906-2.591,1.552-1.445,3.287-2.589,5.288-3.348Zm38.769-16.834c-2.501,4.155-5.625,7.809-8.967,11.299-.657,.684-1.338,.86-2.304,.77-2.805-.261-5.618-.401-8.89-.255,1.691-1.357,3.075-2.368,4.278-3.597,2.009-2.05,3.698-4.32,4.769-6.997,.329-.816,.759-1.342,1.679-1.492,3.228-.521,6.466-.897,9.701-.976,.342,.588-.059,.91-.265,1.247Zm5.478-11.717c-.834,2.731-2.001,5.33-3.246,7.899-.602,1.237-1.394,1.957-2.881,1.829-1.268-.111-2.55,.384-3.958,.074,.246-.966,.841-1.369,1.261-1.885,2.749-3.385,4.18-7.267,4.41-11.602,.083-1.568,.15-1.713,1.702-2.218,.826-.266,1.657-.521,2.495-.737,1.335-.347,1.596-.131,1.463,1.212-.185,1.863-.703,3.651-1.246,5.428Zm-3.597-15.192c.056-.179,.131-.347,.187-.524,.602-1.942,1.615-2.726,3.665-2.952,.703-.078,1.07,.184,1.193,.831,.553,2.94,.684,5.891,.266,8.86-.094,.691-.457,1.118-1.126,1.313-.89,.261-1.768,.568-2.66,.816-2.333,.644-4.585,1.478-6.776,2.675,2.132-3.504,4.002-7.113,5.251-11.019Zm-.602-.853c-.093,.543-.276,1.074-.457,1.598-2.335,6.859-6.38,12.536-11.907,17.185-.706,.592-1.414,1.182-2.127,1.77-.03,.025-.113-.012-.344-.042-.022-1.084,.217-2.154,.426-3.22,.59-2.97,1.249-5.932,1.807-8.912,.194-1.032,.587-1.82,1.445-2.464,3.026-2.277,6.196-4.317,9.53-6.104,.273-.145,.546-.295,.838-.399,.543-.189,.893-.022,.789,.588Zm-5.097-6.149c.352-1.242,2.402-2.67,3.658-2.555,.452,.04,.632,.347,.752,.703,.565,1.642,.826,3.348,.979,5.069,.04,.467-.16,.868-.576,1.08-2.405,1.204-4.72,2.577-7.361,4.163,.389-1.175,.632-1.986,.93-2.775,.701-1.851,1.079-3.793,1.618-5.686Zm-12.207,7.949c3.343-3.137,6.953-5.906,11.16-8.442,.285,1.611-.442,2.648-.602,3.781-.034,.243-.126,.479-.187,.718-.856,3.489-2.483,6.336-5.831,8.131-1.716,.917-3.112,2.427-4.656,3.665-.233,.187-.475,.479-.811,.347-.426-.172-.381-.605-.34-.957,.246-2.087,.509-4.177,.777-6.26,.047-.381,.211-.721,.489-.983Zm-8.206,7.767c1.586-1.466,3.066-3.051,4.608-4.563,.561-.553,1.178-1.047,2.112-1.869-.281,2.786-.212,5.165-.624,7.514-.089,.516-.389,.887-.767,1.23-3.471,3.157-6.938,6.321-10.415,9.477-.071,.064-.228,.037-.351,.056-.243-.448,.04-.826,.179-1.215,.598-1.687,1.305-3.344,1.783-5.064,.62-2.223,1.799-4.015,3.474-5.566Zm-19.321,22.892c4.342-5.812,8.89-11.449,13.714-16.863,.366-.408,.684-.878,1.283-1.148,.307,.426,.049,.816-.083,1.185-.767,2.158-1.559,4.308-2.33,6.466-.337,.946-.829,1.773-1.544,2.501-3.956,4.017-7.788,8.15-11.391,12.495-.15,.18-.288,.411-.696,.337-.256-1.77-.15-3.373,1.047-4.974Zm-2.144,3.363c.128,1.817,.046,3.459-1.2,4.996-3.897,4.796-7.506,9.81-10.879,15.027,3.38-7.046,7.427-13.707,12.079-20.023Zm-12.944,23.621c4.379-7.779,9.616-14.763,15.199-21.502,.116,.056,.233,.113,.347,.169-.367,2.812-.733,5.622-1.104,8.433-.067,.521-.367,.905-.752,1.239-4.421,3.875-8.841,7.754-13.262,11.631-.039,.03-.121,.008-.428,.03Zm.844,1.23c.625-1.365,1.593-1.873,2.292-2.611,1.531-1.615,3.415-2.473,5.588-3.056,5.02-1.342,10.105-1.81,15.27-1.728,.92,.015,1.844-.003,2.768-.007,.037,.123,.078,.246,.113,.366-8.261,3.439-16.804,5.82-26.031,7.036Zm6.845,3.766c-1.155-.77-2.368-1.458-3.71-2.274,3.489-.871,5.793,1.107,8.625,2.694-1.965,.654-3.472,.543-4.915-.42Zm12.902,66.899c-.464,.172-.924,.359-1.402,.479-2.228,.558-4.361,1.335-6.365,2.483-.592,.337-1.391,1-1.982,.344-.524-.583,.197-1.257,.553-1.799,.863-1.308,1.381-2.753,1.847-4.231,.519-1.642,.691-1.765,2.147-1.025,.829,.423,1.35,.298,1.911-.386,.504-.61,.863-1.354,1.75-1.93,1.043,1.482,1.556,3.071,2.188,4.6,.288,.713,.064,1.202-.647,1.465Z" fill="#fff"/>
  </g>
</svg>